<?xml version="1.0" encoding="UTF-8"?>
<svg id="Layer_1" data-name="Layer 1" xmlns="http://www.w3.org/2000/svg" viewBox="0 0 362 362">
  <defs>
    <style>
      .cls-1 {
        fill: #009245;
      }

      .cls-2, .cls-3 {
        stroke: #000;
        stroke-miterlimit: 10;
        stroke-width: 2px;
      }

      .cls-3 {
        fill: none;
      }
    </style>
  </defs>
  <path d="M181,21c42.74,0,82.92,16.64,113.14,46.86,30.22,30.22,46.86,70.4,46.86,113.14s-16.64,82.92-46.86,113.14c-30.22,30.22-70.4,46.86-113.14,46.86s-82.92-16.64-113.14-46.86c-30.22-30.22-46.86-70.4-46.86-113.14s16.64-82.93,46.86-113.14c30.21-30.22,70.39-46.86,113.14-46.86m-.02,178.89c5.08,0,10.12-2.23,13.83-6.11,3.48-3.64,5.29-8.22,5.08-12.89-.47-10.55-8.78-18.82-18.91-18.82-5.08,0-10.12,2.23-13.83,6.11-3.48,3.64-5.29,8.22-5.08,12.89,.47,10.55,8.78,18.82,18.91,18.82m.02-180.89c-44.74,0-85.24,18.13-114.55,47.45-29.32,29.31-47.45,69.81-47.45,114.55,0,89.47,72.53,162,162,162s162-72.53,162-162S270.47,19,181,19h0Zm-.02,178.89c-9.48,0-16.5-7.75-16.91-16.91-.41-9.13,8.06-16.91,16.91-16.91,9.48,0,16.5,7.75,16.91,16.91,.41,9.13-8.06,16.91-16.91,16.91h0Z"/>
  <path d="M181,21c42.74,0,82.92,16.64,113.14,46.86,30.22,30.22,46.86,70.4,46.86,113.14s-16.64,82.92-46.86,113.14c-30.22,30.22-70.4,46.86-113.14,46.86s-82.92-16.64-113.14-46.86c-30.22-30.22-46.86-70.4-46.86-113.14s16.64-82.93,46.86-113.14c30.21-30.22,70.39-46.86,113.14-46.86m-.02,178.89c5.08,0,10.12-2.23,13.83-6.11,3.48-3.64,5.29-8.22,5.08-12.89-.47-10.55-8.78-18.82-18.91-18.82-5.08,0-10.12,2.23-13.83,6.11-3.48,3.64-5.29,8.22-5.08,12.89,.47,10.55,8.78,18.82,18.91,18.82m.02-180.89c-44.74,0-85.24,18.13-114.55,47.45-29.32,29.31-47.45,69.81-47.45,114.55,0,89.47,72.53,162,162,162s162-72.53,162-162S270.47,19,181,19h0Zm-.02,178.89c-9.48,0-16.5-7.75-16.91-16.91-.41-9.13,8.06-16.91,16.91-16.91,9.48,0,16.5,7.75,16.91,16.91,.41,9.13-8.06,16.91-16.91,16.91h0Z"/>
  <g>
    <path d="M181,360C82.3,360,2,279.7,2,181S82.3,2,181,2s179,80.3,179,179-80.3,179-179,179Zm0-342c-43.55,0-84.48,16.96-115.26,47.74-30.79,30.78-47.74,71.71-47.74,115.26,0,89.88,73.12,163,163,163s163-73.12,163-163S270.88,18,181,18Z"/>
    <path d="M181,3c24.03,0,47.34,4.71,69.28,13.99,21.2,8.97,40.23,21.8,56.58,38.15,16.35,16.35,29.18,35.38,38.15,56.58,9.28,21.94,13.99,45.25,13.99,69.28s-4.71,47.34-13.99,69.28c-8.97,21.2-21.8,40.23-38.15,56.58-16.35,16.35-35.38,29.18-56.58,38.15-21.94,9.28-45.25,13.99-69.28,13.99s-47.34-4.71-69.28-13.99c-21.2-8.97-40.23-21.8-56.58-38.15-16.35-16.35-29.18-35.38-38.15-56.58-9.28-21.94-13.99-45.25-13.99-69.28s4.71-47.34,13.99-69.28c8.97-21.2,21.8-40.23,38.15-56.58,16.35-16.35,35.38-29.18,56.58-38.15,21.94-9.28,45.25-13.99,69.28-13.99m0,342c90.43,0,164-73.57,164-164S271.43,17,181,17c-43.81,0-85,17.06-115.96,48.04-30.98,30.97-48.04,72.15-48.04,115.96,0,90.43,73.57,164,164,164M181,1C81.59,1,1,81.59,1,181s80.59,180,180,180,180-80.59,180-180S280.41,1,181,1h0Zm0,342c-89.47,0-162-72.53-162-162,0-44.74,18.13-85.24,47.45-114.55,29.31-29.32,69.81-47.45,114.55-47.45,89.47,0,162,72.53,162,162s-72.53,162-162,162h0Z"/>
  </g>
  <path class="cls-3" d="M181,19c-44.74,0-85.24,18.13-114.55,47.45-29.32,29.31-47.45,69.81-47.45,114.55,0,89.47,72.53,162,162,162s162-72.53,162-162S270.47,19,181,19Zm-16.93,161.98c-.41-9.13,8.06-16.91,16.91-16.91,9.48,0,16.5,7.75,16.91,16.91,.41,9.13-8.06,16.91-16.91,16.91-9.48,0-16.5-7.75-16.91-16.91Z"/>
  <path class="cls-3" d="M197.02,172.79c-1.08-2.12-2.57-3.98-4.37-5.5-1.41-1.21-3.02-2.2-4.76-2.92-2.12-.88-4.45-1.37-6.89-1.37s-4.76,.49-6.88,1.37c-2.2,.91-4.19,2.24-5.85,3.9-1.65,1.66-2.99,3.64-3.9,5.84-.88,2.12-1.37,4.45-1.37,6.89,0,9.94,8.06,18,18,18s18-8.06,18-18c0-2.96-.72-5.75-1.98-8.21Zm-16.04,25.1c-9.48,0-16.5-7.75-16.91-16.91-.41-9.13,8.06-16.91,16.91-16.91,9.48,0,16.5,7.75,16.91,16.91,.41,9.13-8.06,16.91-16.91,16.91Z"/>
  <path class="cls-2" d="M197.89,180.98c.41,9.13-8.06,16.91-16.91,16.91-9.48,0-16.5-7.75-16.91-16.91-.41-9.13,8.06-16.91,16.91-16.91,9.48,0,16.5,7.75,16.91,16.91Z"/>
  <path class="cls-3" d="M181,163.7V19"/>
  <path class="cls-3" d="M187.62,165.02c18.38-45.02,37.38-89.02,55.38-133.69"/>
  <path class="cls-3" d="M174.47,165.23c-18.47-45.23-37.47-89.23-55.46-133.9"/>
  <path class="cls-3" d="M192.15,167.79c33.85-33.79,67.85-67.79,101.35-101.35"/>
  <path class="cls-3" d="M196.14,173.16c21.86-9.16,43.86-18.16,66.86-27.16,22-9,44-18,65.77-27.78"/>
  <path class="cls-3" d="M198.3,181c47.7,0,96.7,0,144.7,0"/>
  <path class="cls-3" d="M168.77,168.77c-33.77-33.77-68.77-68.77-102.32-102.32"/>
  <path class="cls-3" d="M165.02,174.38c-45.02-18.38-89.02-37.38-133.69-55.38"/>
  <path class="cls-3" d="M163.7,181c-47.7,0-96.7,0-144.7,0"/>
  <path class="cls-1" d="M60.04,218.62c1.37-.29,3.53-.5,5.72-.5,3.13,0,5.15,.54,6.66,1.76,1.26,.94,2.02,2.38,2.02,4.28,0,2.34-1.55,4.39-4.1,5.33v.07c2.3,.58,5,2.48,5,6.08,0,2.09-.83,3.67-2.05,4.86-1.69,1.55-4.43,2.27-8.39,2.27-2.16,0-3.82-.14-4.86-.29v-23.86Zm3.13,9.93h2.84c3.31,0,5.26-1.73,5.26-4.07,0-2.84-2.16-3.96-5.33-3.96-1.44,0-2.27,.11-2.77,.22v7.81Zm0,11.63c.61,.11,1.51,.14,2.63,.14,3.24,0,6.23-1.19,6.23-4.72,0-3.31-2.84-4.68-6.26-4.68h-2.59v9.25Z"/>
  <path class="cls-1" d="M82.97,220.24c.04,1.08-.76,1.94-2.02,1.94-1.12,0-1.91-.86-1.91-1.94s.83-1.98,1.98-1.98,1.94,.86,1.94,1.98Zm-3.53,22.32v-17.42h3.17v17.42h-3.17Z"/>
  <path class="cls-1" d="M91,233.13h.07c.43-.61,1.04-1.37,1.55-1.98l5.11-6.01h3.82l-6.73,7.16,7.67,10.26h-3.85l-6.01-8.35-1.62,1.8v6.55h-3.13v-25.56h3.13v16.13Z"/>
  <path class="cls-1" d="M106.52,234.42c.07,4.28,2.81,6.05,5.97,6.05,2.27,0,3.64-.4,4.82-.9l.54,2.27c-1.12,.5-3.02,1.08-5.8,1.08-5.36,0-8.57-3.53-8.57-8.78s3.1-9.39,8.17-9.39c5.69,0,7.2,5,7.2,8.21,0,.65-.07,1.15-.11,1.48h-12.24Zm9.29-2.27c.04-2.02-.83-5.15-4.39-5.15-3.2,0-4.61,2.95-4.86,5.15h9.25Z"/>
  <path class="cls-1" d="M130.53,218.3h3.13v11.7h.11c.65-.94,1.3-1.8,1.91-2.59l7.42-9.11h3.89l-8.78,10.29,9.47,13.97h-3.71l-7.99-11.91-2.3,2.66v9.25h-3.13v-24.26Z"/>
  <path class="cls-1" d="M153.46,220.24c.04,1.08-.76,1.94-2.02,1.94-1.12,0-1.91-.86-1.91-1.94s.83-1.98,1.98-1.98,1.94,.86,1.94,1.98Zm-3.53,22.32v-17.42h3.17v17.42h-3.17Z"/>
  <path class="cls-1" d="M158.35,229.85c0-1.8-.04-3.28-.14-4.72h2.81l.18,2.88h.07c.86-1.66,2.88-3.28,5.76-3.28,2.41,0,6.16,1.44,6.16,7.42v10.4h-3.17v-10.04c0-2.81-1.04-5.15-4.03-5.15-2.09,0-3.71,1.48-4.25,3.24-.14,.4-.22,.94-.22,1.48v10.47h-3.17v-12.71Z"/>
  <path class="cls-1" d="M193.35,225.13c-.07,1.26-.14,2.66-.14,4.79v10.12c0,4-.79,6.44-2.48,7.96-1.69,1.58-4.14,2.09-6.33,2.09s-4.39-.5-5.79-1.44l.79-2.41c1.15,.72,2.95,1.37,5.11,1.37,3.24,0,5.62-1.69,5.62-6.08v-1.94h-.07c-.97,1.62-2.84,2.92-5.54,2.92-4.32,0-7.42-3.67-7.42-8.5,0-5.9,3.85-9.25,7.85-9.25,3.02,0,4.68,1.58,5.44,3.02h.07l.14-2.63h2.77Zm-3.28,6.88c0-.54-.04-1.01-.18-1.44-.58-1.84-2.12-3.35-4.43-3.35-3.02,0-5.18,2.56-5.18,6.59,0,3.42,1.73,6.26,5.15,6.26,1.94,0,3.71-1.22,4.39-3.24,.18-.54,.25-1.15,.25-1.69v-3.13Z"/>
  <path class="cls-1" d="M206.2,218.62c1.37-.29,3.53-.5,5.72-.5,3.13,0,5.15,.54,6.66,1.76,1.26,.94,2.02,2.38,2.02,4.28,0,2.34-1.55,4.39-4.1,5.33v.07c2.3,.58,5,2.48,5,6.08,0,2.09-.83,3.67-2.05,4.86-1.69,1.55-4.43,2.27-8.39,2.27-2.16,0-3.82-.14-4.86-.29v-23.86Zm3.13,9.93h2.84c3.31,0,5.25-1.73,5.25-4.07,0-2.84-2.16-3.96-5.33-3.96-1.44,0-2.27,.11-2.77,.22v7.81Zm0,11.63c.61,.11,1.51,.14,2.63,.14,3.24,0,6.23-1.19,6.23-4.72,0-3.31-2.84-4.68-6.26-4.68h-2.59v9.25Z"/>
  <path class="cls-1" d="M241.37,233.7c0,6.44-4.46,9.25-8.67,9.25-4.72,0-8.35-3.46-8.35-8.96,0-5.83,3.82-9.25,8.64-9.25s8.39,3.63,8.39,8.96Zm-13.82,.18c0,3.82,2.2,6.7,5.29,6.7s5.29-2.84,5.29-6.77c0-2.95-1.48-6.7-5.22-6.7s-5.36,3.46-5.36,6.77Z"/>
  <path class="cls-1" d="M245.37,230.57c0-2.05-.04-3.82-.14-5.44h2.77l.11,3.42h.14c.79-2.34,2.7-3.82,4.82-3.82,.36,0,.61,.04,.9,.11v2.99c-.32-.07-.65-.11-1.08-.11-2.23,0-3.82,1.69-4.25,4.07-.07,.43-.14,.94-.14,1.48v9.29h-3.13v-11.99Z"/>
  <path class="cls-1" d="M272.18,217v21.06c0,1.55,.04,3.31,.14,4.5h-2.84l-.14-3.02h-.07c-.97,1.94-3.1,3.42-5.94,3.42-4.21,0-7.45-3.56-7.45-8.85-.04-5.79,3.56-9.36,7.81-9.36,2.66,0,4.46,1.26,5.26,2.66h.07v-10.4h3.17Zm-3.17,15.23c0-.4-.04-.94-.14-1.33-.47-2.02-2.2-3.67-4.57-3.67-3.28,0-5.22,2.88-5.22,6.73,0,3.53,1.73,6.44,5.15,6.44,2.12,0,4.07-1.4,4.64-3.78,.11-.43,.14-.86,.14-1.37v-3.02Z"/>
  <path class="cls-1" d="M279.21,234.42c.07,4.28,2.81,6.05,5.97,6.05,2.27,0,3.64-.4,4.82-.9l.54,2.27c-1.12,.5-3.02,1.08-5.8,1.08-5.36,0-8.57-3.53-8.57-8.78s3.1-9.39,8.17-9.39c5.69,0,7.2,5,7.2,8.21,0,.65-.07,1.15-.11,1.48h-12.24Zm9.29-2.27c.04-2.02-.83-5.15-4.39-5.15-3.2,0-4.61,2.95-4.86,5.15h9.25Z"/>
  <path class="cls-1" d="M295.48,230.57c0-2.05-.04-3.82-.14-5.44h2.77l.11,3.42h.14c.79-2.34,2.7-3.82,4.82-3.82,.36,0,.61,.04,.9,.11v2.99c-.32-.07-.65-.11-1.08-.11-2.23,0-3.82,1.69-4.25,4.07-.07,.43-.14,.94-.14,1.48v9.29h-3.13v-11.99Z"/>
  <path class="cls-1" d="M306.82,239.32c.94,.61,2.59,1.26,4.18,1.26,2.3,0,3.38-1.15,3.38-2.59,0-1.51-.9-2.34-3.24-3.2-3.13-1.12-4.61-2.84-4.61-4.93,0-2.81,2.27-5.11,6.01-5.11,1.76,0,3.31,.5,4.28,1.08l-.79,2.3c-.68-.43-1.94-1.01-3.56-1.01-1.87,0-2.92,1.08-2.92,2.38,0,1.44,1.04,2.09,3.31,2.95,3.02,1.15,4.57,2.66,4.57,5.25,0,3.06-2.38,5.22-6.52,5.22-1.91,0-3.67-.47-4.89-1.19l.79-2.41Z"/>
  <text/>
</svg>