<?xml version="1.0" encoding="utf-8"?>
<!-- Svg Vector Icons : http://www.onlinewebfonts.com/icon -->
<!DOCTYPE svg PUBLIC "-//W3C//DTD SVG 1.1//EN" "http://www.w3.org/Graphics/SVG/1.1/DTD/svg11.dtd">
<svg version="1.1" xmlns="http://www.w3.org/2000/svg" xmlns:xlink="http://www.w3.org/1999/xlink" x="0px" y="0px" viewBox="0 0 1000 1000" enable-background="new 0 0 1000 1000" xml:space="preserve">
<metadata> Svg Vector Icons : http://www.onlinewebfonts.com/icon </metadata>
<g><path d="M823.2,686.8c-69.1,0-125.1,55.5-125.1,123.9H447.9c0-66.5-53-120.6-119.5-123.6v-28.6l556-77L990,271.8h-40.7l0,0.1H232.6L180.5,88.4l-6.5-23h-14.5l-28.9,0v0H10v41.3h132.3l144.4,508.6v76.8c-51.5,15.3-89.1,62.6-89.1,118.6c0,68.4,56,123.9,125.1,123.9c54.4,0,100.6-34.5,117.8-82.6h264.8c17.2,48.1,63.4,82.6,117.8,82.6c69.1,0,125.1-55.5,125.1-123.9C948.4,742.3,892.3,686.8,823.2,686.8z M244.3,313.2h690.4l-82.3,233.2L330.6,617L244.3,313.2z M322.8,893.3c-46,0-83.4-37-83.4-82.6c0-45.6,37.4-82.6,83.4-82.6c46.1,0,83.4,37,83.4,82.6C406.2,856.3,368.9,893.3,322.8,893.3z M823.2,893.3c-46,0-83.4-37-83.4-82.6c0-45.6,37.4-82.6,83.4-82.6c46.1,0,83.4,37,83.4,82.6C906.6,856.3,869.3,893.3,823.2,893.3z"/></g>
</svg>